<svg width="570" height="377" viewBox="0 0 570 377" fill="none" xmlns="http://www.w3.org/2000/svg">
<g clip-path="url(#clip0)">
<rect width="570" height="377" fill="white"/>
<path d="M0 0H570V373H0V0Z" fill="white"/>
<rect y="139" width="636" height="32" fill="#FCEBCD"/>
<rect width="637" height="42" fill="#E7F5FF"/>
<path d="M268.778 24.6426C268.778 24.1445 268.603 23.7637 268.251 23.5C267.899 23.2305 267.267 22.9492 266.353 22.6562C265.438 22.3574 264.715 22.0645 264.182 21.7773C262.729 20.9922 262.002 19.9346 262.002 18.6045C262.002 17.9131 262.195 17.2979 262.582 16.7588C262.975 16.2139 263.534 15.7891 264.261 15.4844C264.993 15.1797 265.813 15.0273 266.722 15.0273C267.636 15.0273 268.45 15.1943 269.165 15.5283C269.88 15.8564 270.434 16.3223 270.826 16.9258C271.225 17.5293 271.424 18.2148 271.424 18.9824H268.787C268.787 18.3965 268.603 17.9424 268.233 17.6201C267.864 17.292 267.346 17.1279 266.678 17.1279C266.033 17.1279 265.532 17.2656 265.175 17.541C264.817 17.8105 264.639 18.168 264.639 18.6133C264.639 19.0293 264.847 19.3779 265.263 19.6592C265.685 19.9404 266.303 20.2041 267.117 20.4502C268.617 20.9014 269.71 21.4609 270.396 22.1289C271.081 22.7969 271.424 23.6289 271.424 24.625C271.424 25.7324 271.005 26.6025 270.167 27.2354C269.329 27.8623 268.201 28.1758 266.783 28.1758C265.799 28.1758 264.902 27.9971 264.094 27.6396C263.285 27.2764 262.667 26.7812 262.239 26.1543C261.817 25.5273 261.606 24.8008 261.606 23.9746H264.252C264.252 25.3867 265.096 26.0928 266.783 26.0928C267.41 26.0928 267.899 25.9668 268.251 25.7148C268.603 25.457 268.778 25.0996 268.778 24.6426ZM281.61 23.333C281.61 24.7979 281.276 25.9727 280.608 26.8574C279.946 27.7363 279.05 28.1758 277.919 28.1758C276.958 28.1758 276.182 27.8418 275.59 27.1738V31.6562H273.05V18.4902H275.405L275.493 19.4219C276.108 18.6836 276.911 18.3145 277.901 18.3145C279.073 18.3145 279.984 18.748 280.635 19.6152C281.285 20.4824 281.61 21.6777 281.61 23.2012V23.333ZM279.07 23.1484C279.07 22.2637 278.912 21.5811 278.596 21.1006C278.285 20.6201 277.831 20.3799 277.233 20.3799C276.437 20.3799 275.889 20.6846 275.59 21.2939V25.1875C275.9 25.8145 276.454 26.1279 277.251 26.1279C278.464 26.1279 279.07 25.1348 279.07 23.1484ZM288.536 20.8721C288.19 20.8252 287.886 20.8018 287.622 20.8018C286.661 20.8018 286.031 21.127 285.732 21.7773V28H283.192V18.4902H285.592L285.662 19.624C286.172 18.751 286.878 18.3145 287.78 18.3145C288.062 18.3145 288.325 18.3525 288.571 18.4287L288.536 20.8721ZM293.968 28.1758C292.573 28.1758 291.437 27.748 290.558 26.8926C289.685 26.0371 289.248 24.8975 289.248 23.4736V23.2275C289.248 22.2725 289.433 21.4199 289.802 20.6699C290.171 19.9141 290.692 19.334 291.366 18.9297C292.046 18.5195 292.819 18.3145 293.687 18.3145C294.987 18.3145 296.01 18.7246 296.754 19.5449C297.504 20.3652 297.879 21.5283 297.879 23.0342V24.0713H291.823C291.905 24.6924 292.151 25.1904 292.562 25.5654C292.978 25.9404 293.502 26.1279 294.135 26.1279C295.113 26.1279 295.878 25.7734 296.429 25.0645L297.677 26.4619C297.296 27.001 296.78 27.4229 296.13 27.7275C295.479 28.0264 294.759 28.1758 293.968 28.1758ZM293.678 20.3711C293.174 20.3711 292.764 20.541 292.447 20.8809C292.137 21.2207 291.938 21.707 291.85 22.3398H295.383V22.1377C295.371 21.5752 295.219 21.1416 294.926 20.8369C294.633 20.5264 294.217 20.3711 293.678 20.3711ZM304.84 28C304.723 27.7715 304.638 27.4873 304.585 27.1475C303.97 27.833 303.17 28.1758 302.186 28.1758C301.254 28.1758 300.48 27.9062 299.865 27.3672C299.256 26.8281 298.951 26.1484 298.951 25.3281C298.951 24.3203 299.323 23.5469 300.067 23.0078C300.817 22.4688 301.898 22.1963 303.311 22.1904H304.479V21.6455C304.479 21.2061 304.365 20.8545 304.137 20.5908C303.914 20.3271 303.56 20.1953 303.073 20.1953C302.646 20.1953 302.309 20.2979 302.062 20.5029C301.822 20.708 301.702 20.9893 301.702 21.3467H299.162C299.162 20.7959 299.332 20.2861 299.672 19.8174C300.012 19.3486 300.492 18.9824 301.113 18.7188C301.734 18.4492 302.432 18.3145 303.205 18.3145C304.377 18.3145 305.306 18.6104 305.991 19.2021C306.683 19.7881 307.028 20.6143 307.028 21.6807V25.8027C307.034 26.7051 307.16 27.3877 307.406 27.8506V28H304.84ZM302.739 26.2334C303.114 26.2334 303.46 26.1514 303.776 25.9873C304.093 25.8174 304.327 25.5918 304.479 25.3105V23.6758H303.53C302.259 23.6758 301.582 24.1152 301.5 24.9941L301.491 25.1436C301.491 25.46 301.603 25.7207 301.825 25.9258C302.048 26.1309 302.353 26.2334 302.739 26.2334ZM308.584 23.1748C308.584 21.6924 308.915 20.5117 309.577 19.6328C310.245 18.7539 311.156 18.3145 312.311 18.3145C313.236 18.3145 314.001 18.6602 314.604 19.3516V14.5H317.153V28H314.859L314.736 26.9893C314.104 27.7803 313.289 28.1758 312.293 28.1758C311.174 28.1758 310.274 27.7363 309.595 26.8574C308.921 25.9727 308.584 24.7451 308.584 23.1748ZM311.124 23.3594C311.124 24.25 311.279 24.9326 311.59 25.4072C311.9 25.8818 312.352 26.1191 312.943 26.1191C313.729 26.1191 314.282 25.7881 314.604 25.126V21.373C314.288 20.7109 313.74 20.3799 312.961 20.3799C311.736 20.3799 311.124 21.373 311.124 23.3594ZM325.925 24.6426C325.925 24.1445 325.749 23.7637 325.397 23.5C325.046 23.2305 324.413 22.9492 323.499 22.6562C322.585 22.3574 321.861 22.0645 321.328 21.7773C319.875 20.9922 319.148 19.9346 319.148 18.6045C319.148 17.9131 319.342 17.2979 319.729 16.7588C320.121 16.2139 320.681 15.7891 321.407 15.4844C322.14 15.1797 322.96 15.0273 323.868 15.0273C324.782 15.0273 325.597 15.1943 326.312 15.5283C327.026 15.8564 327.58 16.3223 327.973 16.9258C328.371 17.5293 328.57 18.2148 328.57 18.9824H325.934C325.934 18.3965 325.749 17.9424 325.38 17.6201C325.011 17.292 324.492 17.1279 323.824 17.1279C323.18 17.1279 322.679 17.2656 322.321 17.541C321.964 17.8105 321.785 18.168 321.785 18.6133C321.785 19.0293 321.993 19.3779 322.409 19.6592C322.831 19.9404 323.449 20.2041 324.264 20.4502C325.764 20.9014 326.856 21.4609 327.542 22.1289C328.228 22.7969 328.57 23.6289 328.57 24.625C328.57 25.7324 328.151 26.6025 327.313 27.2354C326.476 27.8623 325.348 28.1758 323.93 28.1758C322.945 28.1758 322.049 27.9971 321.24 27.6396C320.432 27.2764 319.813 26.7812 319.386 26.1543C318.964 25.5273 318.753 24.8008 318.753 23.9746H321.398C321.398 25.3867 322.242 26.0928 323.93 26.0928C324.557 26.0928 325.046 25.9668 325.397 25.7148C325.749 25.457 325.925 25.0996 325.925 24.6426ZM332.675 19.5273C333.349 18.7188 334.195 18.3145 335.215 18.3145C337.277 18.3145 338.323 19.5127 338.353 21.9092V28H335.812V21.9795C335.812 21.4346 335.695 21.0332 335.461 20.7754C335.227 20.5117 334.837 20.3799 334.292 20.3799C333.548 20.3799 333.009 20.667 332.675 21.2412V28H330.135V14.5H332.675V19.5273ZM344.646 28.1758C343.251 28.1758 342.114 27.748 341.235 26.8926C340.362 26.0371 339.926 24.8975 339.926 23.4736V23.2275C339.926 22.2725 340.11 21.4199 340.479 20.6699C340.849 19.9141 341.37 19.334 342.044 18.9297C342.724 18.5195 343.497 18.3145 344.364 18.3145C345.665 18.3145 346.688 18.7246 347.432 19.5449C348.182 20.3652 348.557 21.5283 348.557 23.0342V24.0713H342.501C342.583 24.6924 342.829 25.1904 343.239 25.5654C343.655 25.9404 344.18 26.1279 344.812 26.1279C345.791 26.1279 346.556 25.7734 347.106 25.0645L348.354 26.4619C347.974 27.001 347.458 27.4229 346.808 27.7275C346.157 28.0264 345.437 28.1758 344.646 28.1758ZM344.355 20.3711C343.852 20.3711 343.441 20.541 343.125 20.8809C342.814 21.2207 342.615 21.707 342.527 22.3398H346.061V22.1377C346.049 21.5752 345.896 21.1416 345.604 20.8369C345.311 20.5264 344.895 20.3711 344.355 20.3711ZM354.384 28.1758C352.989 28.1758 351.853 27.748 350.974 26.8926C350.101 26.0371 349.664 24.8975 349.664 23.4736V23.2275C349.664 22.2725 349.849 21.4199 350.218 20.6699C350.587 19.9141 351.108 19.334 351.782 18.9297C352.462 18.5195 353.235 18.3145 354.103 18.3145C355.403 18.3145 356.426 18.7246 357.17 19.5449C357.92 20.3652 358.295 21.5283 358.295 23.0342V24.0713H352.239C352.321 24.6924 352.567 25.1904 352.978 25.5654C353.394 25.9404 353.918 26.1279 354.551 26.1279C355.529 26.1279 356.294 25.7734 356.845 25.0645L358.093 26.4619C357.712 27.001 357.196 27.4229 356.546 27.7275C355.896 28.0264 355.175 28.1758 354.384 28.1758ZM354.094 20.3711C353.59 20.3711 353.18 20.541 352.863 20.8809C352.553 21.2207 352.354 21.707 352.266 22.3398H355.799V22.1377C355.787 21.5752 355.635 21.1416 355.342 20.8369C355.049 20.5264 354.633 20.3711 354.094 20.3711ZM362.786 16.1523V18.4902H364.412V20.3535H362.786V25.0996C362.786 25.4512 362.854 25.7031 362.988 25.8555C363.123 26.0078 363.381 26.084 363.762 26.084C364.043 26.084 364.292 26.0635 364.509 26.0225V27.9473C364.011 28.0996 363.498 28.1758 362.971 28.1758C361.189 28.1758 360.281 27.2764 360.246 25.4775V20.3535H358.857V18.4902H360.246V16.1523H362.786Z" fill="black"/>
<rect x="0.5" y="110.5" width="569" height="267" fill="white" stroke="black"/>
<rect x="74.5" y="51.5" width="138" height="20" fill="white" stroke="black"/>
<path d="M15.877 61.9326H11.9395V66H9.88867V56.0469H16.3691V57.708H11.9395V60.2783H15.877V61.9326ZM16.9707 62.2334C16.9707 61.4997 17.112 60.8457 17.3945 60.2715C17.6771 59.6973 18.0827 59.2529 18.6113 58.9385C19.1445 58.624 19.762 58.4668 20.4639 58.4668C21.4619 58.4668 22.2754 58.7721 22.9043 59.3828C23.5378 59.9935 23.891 60.8229 23.9639 61.8711L23.9775 62.377C23.9775 63.5117 23.6608 64.4232 23.0273 65.1113C22.3939 65.7949 21.5439 66.1367 20.4775 66.1367C19.4111 66.1367 18.5589 65.7949 17.9209 65.1113C17.2874 64.4277 16.9707 63.498 16.9707 62.3223V62.2334ZM18.9463 62.377C18.9463 63.0788 19.0785 63.6165 19.3428 63.9902C19.6071 64.3594 19.9854 64.5439 20.4775 64.5439C20.9561 64.5439 21.3298 64.3617 21.5986 63.9971C21.8675 63.6279 22.002 63.04 22.002 62.2334C22.002 61.5452 21.8675 61.012 21.5986 60.6338C21.3298 60.2555 20.9515 60.0664 20.4639 60.0664C19.9808 60.0664 19.6071 60.2555 19.3428 60.6338C19.0785 61.0075 18.9463 61.5885 18.9463 62.377ZM29.3506 60.4561C29.0817 60.4196 28.8447 60.4014 28.6396 60.4014C27.8923 60.4014 27.4023 60.6543 27.1699 61.1602V66H25.1943V58.6035H27.0605L27.1152 59.4854C27.5117 58.8063 28.0609 58.4668 28.7627 58.4668C28.9814 58.4668 29.1865 58.4964 29.3779 58.5557L29.3506 60.4561ZM32.1602 58.6035L32.2217 59.4307C32.7458 58.7881 33.4544 58.4668 34.3477 58.4668C35.3001 58.4668 35.9541 58.8428 36.3096 59.5947C36.8291 58.8428 37.5697 58.4668 38.5312 58.4668C39.3333 58.4668 39.9303 58.7015 40.3223 59.1709C40.7142 59.6357 40.9102 60.3376 40.9102 61.2764V66H38.9277V61.2832C38.9277 60.8639 38.8457 60.5586 38.6816 60.3672C38.5176 60.1712 38.2282 60.0732 37.8135 60.0732C37.221 60.0732 36.8109 60.3558 36.583 60.9209L36.5898 66H34.6143V61.29C34.6143 60.8617 34.5299 60.5518 34.3613 60.3604C34.1927 60.1689 33.9056 60.0732 33.5 60.0732C32.9395 60.0732 32.5339 60.3057 32.2832 60.7705V66H30.3076V58.6035H32.1602ZM46.8643 65.248C46.3766 65.8405 45.7021 66.1367 44.8408 66.1367C44.0479 66.1367 43.4417 65.9089 43.0225 65.4531C42.6077 64.9974 42.3958 64.3298 42.3867 63.4502V58.6035H44.3623V63.3818C44.3623 64.152 44.7132 64.5371 45.415 64.5371C46.085 64.5371 46.5452 64.3047 46.7959 63.8398V58.6035H48.7783V66H46.9189L46.8643 65.248ZM52.3535 66H50.3711V55.5H52.3535V66ZM58.2734 66C58.1823 65.8223 58.1162 65.6012 58.0752 65.3369C57.5967 65.8701 56.9746 66.1367 56.209 66.1367C55.4844 66.1367 54.8828 65.9271 54.4043 65.5078C53.9303 65.0885 53.6934 64.5599 53.6934 63.9219C53.6934 63.138 53.9827 62.5365 54.5615 62.1172C55.1449 61.6979 55.9857 61.486 57.084 61.4814H57.9932V61.0576C57.9932 60.7158 57.9043 60.4424 57.7266 60.2373C57.5534 60.0322 57.2777 59.9297 56.8994 59.9297C56.5667 59.9297 56.3047 60.0094 56.1133 60.1689C55.9264 60.3285 55.833 60.5472 55.833 60.8252H53.8574C53.8574 60.3968 53.9896 60.0003 54.2539 59.6357C54.5182 59.2712 54.8919 58.9863 55.375 58.7812C55.8581 58.5716 56.4004 58.4668 57.002 58.4668C57.9134 58.4668 58.6357 58.6969 59.1689 59.1572C59.7067 59.613 59.9756 60.2555 59.9756 61.085V64.291C59.9801 64.9928 60.0781 65.5238 60.2695 65.8838V66H58.2734ZM56.6396 64.626C56.9313 64.626 57.2002 64.5622 57.4463 64.4346C57.6924 64.3024 57.8747 64.127 57.9932 63.9082V62.6367H57.2549C56.266 62.6367 55.7396 62.9785 55.6758 63.6621L55.6689 63.7783C55.6689 64.0244 55.7555 64.2272 55.9287 64.3867C56.1019 64.5462 56.3389 64.626 56.6396 64.626ZM61.5889 65.0293C61.5889 64.7148 61.6937 64.4596 61.9033 64.2637C62.1175 64.0677 62.3841 63.9697 62.7031 63.9697C63.0267 63.9697 63.2933 64.0677 63.5029 64.2637C63.7171 64.4596 63.8242 64.7148 63.8242 65.0293C63.8242 65.3392 63.7194 65.5921 63.5098 65.7881C63.3001 65.9795 63.0312 66.0752 62.7031 66.0752C62.3796 66.0752 62.113 65.9795 61.9033 65.7881C61.6937 65.5921 61.5889 65.3392 61.5889 65.0293ZM61.5889 59.4307C61.5889 59.1162 61.6937 58.861 61.9033 58.665C62.1175 58.4691 62.3841 58.3711 62.7031 58.3711C63.0267 58.3711 63.2933 58.4691 63.5029 58.665C63.7171 58.861 63.8242 59.1162 63.8242 59.4307C63.8242 59.7406 63.7194 59.9935 63.5098 60.1895C63.3001 60.3809 63.0312 60.4766 62.7031 60.4766C62.3796 60.4766 62.113 60.3809 61.9033 60.1895C61.6937 59.9935 61.5889 59.7406 61.5889 59.4307Z" fill="black"/>
<path d="M85.0498 63.3887C85.0498 63.0013 84.9131 62.7051 84.6396 62.5C84.3662 62.2904 83.874 62.0716 83.1631 61.8438C82.4521 61.6113 81.8893 61.3835 81.4746 61.1602C80.3444 60.5495 79.7793 59.7269 79.7793 58.6924C79.7793 58.1546 79.9297 57.6761 80.2305 57.2568C80.5358 56.833 80.971 56.5026 81.5361 56.2656C82.1058 56.0286 82.7438 55.9102 83.4502 55.9102C84.1611 55.9102 84.7946 56.04 85.3506 56.2998C85.9066 56.555 86.3372 56.9173 86.6426 57.3867C86.9525 57.8561 87.1074 58.3893 87.1074 58.9863H85.0566C85.0566 58.5306 84.9131 58.1774 84.626 57.9268C84.3389 57.6715 83.9355 57.5439 83.416 57.5439C82.9147 57.5439 82.5251 57.651 82.2471 57.8652C81.9691 58.0749 81.8301 58.3529 81.8301 58.6992C81.8301 59.0228 81.9919 59.2939 82.3154 59.5127C82.6436 59.7314 83.1243 59.9365 83.7578 60.1279C84.9245 60.4788 85.7744 60.9141 86.3076 61.4336C86.8408 61.9531 87.1074 62.6003 87.1074 63.375C87.1074 64.2363 86.7816 64.9131 86.1299 65.4053C85.4782 65.8929 84.6009 66.1367 83.498 66.1367C82.7324 66.1367 82.0352 65.9977 81.4062 65.7197C80.7773 65.4372 80.2965 65.0521 79.9639 64.5645C79.6357 64.0768 79.4717 63.5117 79.4717 62.8691H81.5293C81.5293 63.9674 82.1855 64.5166 83.498 64.5166C83.9857 64.5166 84.3662 64.4186 84.6396 64.2227C84.9131 64.0221 85.0498 63.7441 85.0498 63.3887ZM92.8018 65.248C92.3141 65.8405 91.6396 66.1367 90.7783 66.1367C89.9854 66.1367 89.3792 65.9089 88.96 65.4531C88.5452 64.9974 88.3333 64.3298 88.3242 63.4502V58.6035H90.2998V63.3818C90.2998 64.152 90.6507 64.5371 91.3525 64.5371C92.0225 64.5371 92.4827 64.3047 92.7334 63.8398V58.6035H94.7158V66H92.8564L92.8018 65.248ZM98.0586 58.6035L98.1201 59.4307C98.6442 58.7881 99.3529 58.4668 100.246 58.4668C101.199 58.4668 101.853 58.8428 102.208 59.5947C102.728 58.8428 103.468 58.4668 104.43 58.4668C105.232 58.4668 105.829 58.7015 106.221 59.1709C106.613 59.6357 106.809 60.3376 106.809 61.2764V66H104.826V61.2832C104.826 60.8639 104.744 60.5586 104.58 60.3672C104.416 60.1712 104.127 60.0732 103.712 60.0732C103.119 60.0732 102.709 60.3558 102.481 60.9209L102.488 66H100.513V61.29C100.513 60.8617 100.428 60.5518 100.26 60.3604C100.091 60.1689 99.804 60.0732 99.3984 60.0732C98.8379 60.0732 98.4323 60.3057 98.1816 60.7705V66H96.2061V58.6035H98.0586ZM108.422 61.9531C108.422 60.9095 108.561 59.916 108.839 58.9727C109.117 58.0293 109.527 57.1953 110.069 56.4707C110.612 55.7415 111.2 55.2357 111.833 54.9531L112.216 56.0195C111.55 56.5117 111.031 57.2728 110.657 58.3027C110.284 59.3327 110.097 60.5358 110.097 61.9121V62.124C110.097 63.5049 110.281 64.7126 110.65 65.7471C111.02 66.7816 111.541 67.554 112.216 68.0645L111.833 69.1104C111.213 68.8324 110.634 68.3402 110.097 67.6338C109.563 66.932 109.156 66.1208 108.873 65.2002C108.59 64.2796 108.44 63.318 108.422 62.3154V61.9531ZM119.004 63.9492H115.408L114.725 66H112.544L116.249 56.0469H118.149L121.875 66H119.694L119.004 63.9492ZM115.962 62.2881H118.45L117.199 58.5625L115.962 62.2881ZM127.392 66H125.416V58.3848L123.058 59.1162V57.5098L127.18 56.0332H127.392V66ZM130.81 65.0293C130.81 64.7148 130.914 64.4596 131.124 64.2637C131.338 64.0677 131.605 63.9697 131.924 63.9697C132.247 63.9697 132.514 64.0677 132.724 64.2637C132.938 64.4596 133.045 64.7148 133.045 65.0293C133.045 65.3392 132.94 65.5921 132.73 65.7881C132.521 65.9795 132.252 66.0752 131.924 66.0752C131.6 66.0752 131.334 65.9795 131.124 65.7881C130.914 65.5921 130.81 65.3392 130.81 65.0293ZM130.81 59.4307C130.81 59.1162 130.914 58.861 131.124 58.665C131.338 58.4691 131.605 58.3711 131.924 58.3711C132.247 58.3711 132.514 58.4691 132.724 58.665C132.938 58.861 133.045 59.1162 133.045 59.4307C133.045 59.7406 132.94 59.9935 132.73 60.1895C132.521 60.3809 132.252 60.4766 131.924 60.4766C131.6 60.4766 131.334 60.3809 131.124 60.1895C130.914 59.9935 130.81 59.7406 130.81 59.4307ZM140.783 61.9326H136.846V66H134.795V56.0469H141.275V57.708H136.846V60.2783H140.783V61.9326ZM147.052 66H145.076V58.3848L142.718 59.1162V57.5098L146.84 56.0332H147.052V66ZM153.778 62.1104C153.778 63.1403 153.63 64.1315 153.334 65.084C153.038 66.0365 152.612 66.8773 152.056 67.6064C151.5 68.3356 150.905 68.8369 150.271 69.1104L149.889 68.0645C150.536 67.5768 151.046 66.8249 151.42 65.8086C151.794 64.7923 151.987 63.6234 152.001 62.3018V61.9395C152.001 60.5768 151.814 59.376 151.44 58.3369C151.071 57.2979 150.554 56.5186 149.889 55.999L150.271 54.9531C150.891 55.222 151.475 55.7096 152.021 56.416C152.573 57.1224 152.999 57.945 153.3 58.8838C153.605 59.8226 153.765 60.7956 153.778 61.8027V62.1104Z" fill="black"/>
<rect x="16" y="79" width="74" height="27" rx="8" fill="#4BA550"/>
<rect x="96" y="78" width="59" height="27" rx="8" fill="#4BA550"/>
<path d="M114.403 91.6108H111.31V93.7056H114.94V95H109.698V87.1797H114.93V88.4849H111.31V90.3486H114.403V91.6108ZM117.997 90.9233L118.974 89.1885H120.634L118.979 92.0352L120.704 95H119.039L118.002 93.1738L116.971 95H115.3L117.024 92.0352L115.375 89.1885H117.041L117.997 90.9233ZM126.612 92.1479C126.612 93.0431 126.408 93.7611 126 94.3018C125.595 94.8389 125.047 95.1074 124.356 95.1074C123.769 95.1074 123.294 94.9033 122.933 94.4951V97.2344H121.38V89.1885H122.82L122.874 89.7578C123.25 89.3066 123.74 89.0811 124.345 89.0811C125.061 89.0811 125.618 89.346 126.016 89.876C126.413 90.4059 126.612 91.1364 126.612 92.0674V92.1479ZM125.06 92.0352C125.06 91.4945 124.963 91.0773 124.77 90.7837C124.58 90.4901 124.302 90.3433 123.937 90.3433C123.45 90.3433 123.115 90.5295 122.933 90.9019V93.2812C123.122 93.6644 123.461 93.856 123.948 93.856C124.689 93.856 125.06 93.249 125.06 92.0352ZM127.337 92.0405C127.337 91.464 127.448 90.9502 127.67 90.499C127.892 90.0479 128.211 89.6987 128.626 89.4517C129.045 89.2046 129.53 89.0811 130.082 89.0811C130.866 89.0811 131.505 89.321 131.999 89.8008C132.497 90.2806 132.774 90.9323 132.832 91.7559L132.842 92.1533C132.842 93.0449 132.593 93.7611 132.096 94.3018C131.598 94.8389 130.93 95.1074 130.092 95.1074C129.254 95.1074 128.585 94.8389 128.083 94.3018C127.586 93.7646 127.337 93.0342 127.337 92.1104V92.0405ZM128.889 92.1533C128.889 92.7048 128.993 93.1273 129.201 93.4209C129.408 93.7109 129.706 93.856 130.092 93.856C130.468 93.856 130.762 93.7127 130.973 93.4263C131.184 93.1362 131.29 92.6743 131.29 92.0405C131.29 91.4998 131.184 91.0809 130.973 90.7837C130.762 90.4865 130.465 90.3379 130.082 90.3379C129.702 90.3379 129.408 90.4865 129.201 90.7837C128.993 91.0773 128.889 91.5339 128.889 92.1533ZM137.064 90.644C136.853 90.6154 136.667 90.6011 136.505 90.6011C135.918 90.6011 135.533 90.7998 135.351 91.1973V95H133.798V89.1885H135.265L135.308 89.8813C135.619 89.3478 136.051 89.0811 136.602 89.0811C136.774 89.0811 136.935 89.1043 137.085 89.1509L137.064 90.644ZM139.943 87.7598V89.1885H140.937V90.3271H139.943V93.2275C139.943 93.4424 139.984 93.5964 140.066 93.6895C140.149 93.7826 140.306 93.8291 140.539 93.8291C140.711 93.8291 140.863 93.8166 140.996 93.7915V94.9678C140.691 95.0609 140.378 95.1074 140.056 95.1074C138.967 95.1074 138.412 94.5578 138.391 93.4585V90.3271H137.542V89.1885H138.391V87.7598H139.943Z" fill="white"/>
<rect x="161" y="78" width="70" height="27" rx="8" fill="#4BA550"/>
<rect x="240" y="79" width="83" height="27" rx="8" fill="#4BA550"/>
<rect x="331" y="78" width="75" height="27" rx="8" fill="#4BA550"/>
<path d="M341.698 95V87.1797H344.104C344.792 87.1797 345.406 87.3354 345.947 87.647C346.491 87.9549 346.915 88.3953 347.22 88.9683C347.524 89.5376 347.676 90.1857 347.676 90.9126V91.2725C347.676 91.9993 347.526 92.6457 347.225 93.2114C346.928 93.7772 346.507 94.2158 345.963 94.5273C345.419 94.8389 344.805 94.9964 344.121 95H341.698ZM343.31 88.4849V93.7056H344.088C344.719 93.7056 345.2 93.4997 345.533 93.0879C345.866 92.6761 346.036 92.0871 346.043 91.3208V90.9072C346.043 90.1123 345.879 89.5107 345.549 89.1025C345.22 88.6908 344.738 88.4849 344.104 88.4849H343.31ZM351.425 95.1074C350.573 95.1074 349.878 94.846 349.341 94.3232C348.808 93.8005 348.541 93.104 348.541 92.2339V92.0835C348.541 91.4998 348.654 90.9788 348.879 90.5205C349.105 90.0586 349.424 89.7041 349.835 89.457C350.251 89.2064 350.723 89.0811 351.253 89.0811C352.048 89.0811 352.673 89.3317 353.128 89.833C353.586 90.3343 353.815 91.0451 353.815 91.9653V92.5991H350.115C350.165 92.9787 350.315 93.283 350.566 93.5122C350.82 93.7414 351.141 93.856 351.527 93.856C352.125 93.856 352.593 93.6393 352.929 93.2061L353.692 94.0601C353.459 94.3895 353.144 94.6473 352.747 94.8335C352.349 95.0161 351.909 95.1074 351.425 95.1074ZM351.248 90.3379C350.94 90.3379 350.689 90.4417 350.496 90.6494C350.306 90.8571 350.185 91.1543 350.131 91.541H352.29V91.4175C352.283 91.0737 352.19 90.8088 352.011 90.6226C351.832 90.4328 351.577 90.3379 351.248 90.3379ZM356.34 95H354.782V86.75H356.34V95ZM360.298 95.1074C359.446 95.1074 358.751 94.846 358.214 94.3232C357.681 93.8005 357.414 93.104 357.414 92.2339V92.0835C357.414 91.4998 357.527 90.9788 357.752 90.5205C357.978 90.0586 358.297 89.7041 358.708 89.457C359.124 89.2064 359.597 89.0811 360.126 89.0811C360.921 89.0811 361.546 89.3317 362.001 89.833C362.459 90.3343 362.688 91.0451 362.688 91.9653V92.5991H358.988C359.038 92.9787 359.188 93.283 359.439 93.5122C359.693 93.7414 360.014 93.856 360.4 93.856C360.998 93.856 361.466 93.6393 361.802 93.2061L362.565 94.0601C362.332 94.3895 362.017 94.6473 361.62 94.8335C361.222 95.0161 360.782 95.1074 360.298 95.1074ZM360.121 90.3379C359.813 90.3379 359.562 90.4417 359.369 90.6494C359.179 90.8571 359.058 91.1543 359.004 91.541H361.163V91.4175C361.156 91.0737 361.063 90.8088 360.884 90.6226C360.705 90.4328 360.451 90.3379 360.121 90.3379ZM365.433 87.7598V89.1885H366.427V90.3271H365.433V93.2275C365.433 93.4424 365.474 93.5964 365.557 93.6895C365.639 93.7826 365.797 93.8291 366.029 93.8291C366.201 93.8291 366.353 93.8166 366.486 93.7915V94.9678C366.181 95.0609 365.868 95.1074 365.546 95.1074C364.457 95.1074 363.902 94.5578 363.881 93.4585V90.3271H363.032V89.1885H363.881V87.7598H365.433ZM369.966 95.1074C369.114 95.1074 368.419 94.846 367.882 94.3232C367.349 93.8005 367.082 93.104 367.082 92.2339V92.0835C367.082 91.4998 367.195 90.9788 367.42 90.5205C367.646 90.0586 367.965 89.7041 368.376 89.457C368.792 89.2064 369.264 89.0811 369.794 89.0811C370.589 89.0811 371.214 89.3317 371.669 89.833C372.127 90.3343 372.356 91.0451 372.356 91.9653V92.5991H368.656C368.706 92.9787 368.856 93.283 369.107 93.5122C369.361 93.7414 369.682 93.856 370.068 93.856C370.666 93.856 371.134 93.6393 371.47 93.2061L372.233 94.0601C372 94.3895 371.685 94.6473 371.288 94.8335C370.89 95.0161 370.45 95.1074 369.966 95.1074ZM369.789 90.3379C369.481 90.3379 369.23 90.4417 369.037 90.6494C368.847 90.8571 368.726 91.1543 368.672 91.541H370.831V91.4175C370.824 91.0737 370.731 90.8088 370.552 90.6226C370.373 90.4328 370.118 90.3379 369.789 90.3379ZM378.979 92.1372H377.695V95H376.084V87.1797H378.99C379.914 87.1797 380.626 87.3856 381.127 87.7974C381.629 88.2091 381.879 88.791 381.879 89.543C381.879 90.0765 381.763 90.5223 381.53 90.8804C381.301 91.2349 380.952 91.5177 380.483 91.729L382.175 94.9248V95H380.445L378.979 92.1372ZM377.695 90.832H378.995C379.4 90.832 379.713 90.73 379.935 90.5259C380.157 90.3182 380.268 90.0335 380.268 89.6719C380.268 89.3031 380.162 89.013 379.951 88.8018C379.743 88.5905 379.423 88.4849 378.99 88.4849H377.695V90.832ZM382.766 92.0405C382.766 91.464 382.877 90.9502 383.099 90.499C383.321 90.0479 383.639 89.6987 384.055 89.4517C384.474 89.2046 384.959 89.0811 385.51 89.0811C386.294 89.0811 386.934 89.321 387.428 89.8008C387.925 90.2806 388.203 90.9323 388.26 91.7559L388.271 92.1533C388.271 93.0449 388.022 93.7611 387.524 94.3018C387.027 94.8389 386.359 95.1074 385.521 95.1074C384.683 95.1074 384.014 94.8389 383.512 94.3018C383.014 93.7646 382.766 93.0342 382.766 92.1104V92.0405ZM384.318 92.1533C384.318 92.7048 384.422 93.1273 384.629 93.4209C384.837 93.7109 385.134 93.856 385.521 93.856C385.897 93.856 386.191 93.7127 386.402 93.4263C386.613 93.1362 386.719 92.6743 386.719 92.0405C386.719 91.4998 386.613 91.0809 386.402 90.7837C386.191 90.4865 385.893 90.3379 385.51 90.3379C385.131 90.3379 384.837 90.4865 384.629 90.7837C384.422 91.0773 384.318 91.5339 384.318 92.1533ZM394.281 92.8892L395.044 89.1885H396.542L395.06 95H393.76L392.659 91.3423L391.558 95H390.264L388.781 89.1885H390.28L391.037 92.8838L392.101 89.1885H393.223L394.281 92.8892Z" fill="white"/>
<rect x="415" y="79" width="95" height="27" rx="8" fill="#4BA550"/>
<path d="M426.698 96V88.1797H429.104C429.792 88.1797 430.406 88.3354 430.947 88.647C431.491 88.9549 431.915 89.3953 432.22 89.9683C432.524 90.5376 432.676 91.1857 432.676 91.9126V92.2725C432.676 92.9993 432.526 93.6457 432.225 94.2114C431.928 94.7772 431.507 95.2158 430.963 95.5273C430.419 95.8389 429.805 95.9964 429.121 96H426.698ZM428.31 89.4849V94.7056H429.088C429.719 94.7056 430.2 94.4997 430.533 94.0879C430.866 93.6761 431.036 93.0871 431.043 92.3208V91.9072C431.043 91.1123 430.879 90.5107 430.549 90.1025C430.22 89.6908 429.738 89.4849 429.104 89.4849H428.31ZM436.425 96.1074C435.573 96.1074 434.878 95.846 434.341 95.3232C433.808 94.8005 433.541 94.104 433.541 93.2339V93.0835C433.541 92.4998 433.654 91.9788 433.879 91.5205C434.105 91.0586 434.424 90.7041 434.835 90.457C435.251 90.2064 435.723 90.0811 436.253 90.0811C437.048 90.0811 437.673 90.3317 438.128 90.833C438.586 91.3343 438.815 92.0451 438.815 92.9653V93.5991H435.115C435.165 93.9787 435.315 94.283 435.566 94.5122C435.82 94.7414 436.141 94.856 436.527 94.856C437.125 94.856 437.593 94.6393 437.929 94.2061L438.692 95.0601C438.459 95.3895 438.144 95.6473 437.747 95.8335C437.349 96.0161 436.909 96.1074 436.425 96.1074ZM436.248 91.3379C435.94 91.3379 435.689 91.4417 435.496 91.6494C435.306 91.8571 435.185 92.1543 435.131 92.541H437.29V92.4175C437.283 92.0737 437.19 91.8088 437.011 91.6226C436.832 91.4328 436.577 91.3379 436.248 91.3379ZM441.34 96H439.782V87.75H441.34V96ZM445.298 96.1074C444.446 96.1074 443.751 95.846 443.214 95.3232C442.681 94.8005 442.414 94.104 442.414 93.2339V93.0835C442.414 92.4998 442.527 91.9788 442.752 91.5205C442.978 91.0586 443.297 90.7041 443.708 90.457C444.124 90.2064 444.597 90.0811 445.126 90.0811C445.921 90.0811 446.546 90.3317 447.001 90.833C447.459 91.3343 447.688 92.0451 447.688 92.9653V93.5991H443.988C444.038 93.9787 444.188 94.283 444.439 94.5122C444.693 94.7414 445.014 94.856 445.4 94.856C445.998 94.856 446.466 94.6393 446.802 94.2061L447.565 95.0601C447.332 95.3895 447.017 95.6473 446.62 95.8335C446.222 96.0161 445.782 96.1074 445.298 96.1074ZM445.121 91.3379C444.813 91.3379 444.562 91.4417 444.369 91.6494C444.179 91.8571 444.058 92.1543 444.004 92.541H446.163V92.4175C446.156 92.0737 446.063 91.8088 445.884 91.6226C445.705 91.4328 445.451 91.3379 445.121 91.3379ZM450.433 88.7598V90.1885H451.427V91.3271H450.433V94.2275C450.433 94.4424 450.474 94.5964 450.557 94.6895C450.639 94.7826 450.797 94.8291 451.029 94.8291C451.201 94.8291 451.353 94.8166 451.486 94.7915V95.9678C451.181 96.0609 450.868 96.1074 450.546 96.1074C449.457 96.1074 448.902 95.5578 448.881 94.4585V91.3271H448.032V90.1885H448.881V88.7598H450.433ZM454.966 96.1074C454.114 96.1074 453.419 95.846 452.882 95.3232C452.349 94.8005 452.082 94.104 452.082 93.2339V93.0835C452.082 92.4998 452.195 91.9788 452.42 91.5205C452.646 91.0586 452.965 90.7041 453.376 90.457C453.792 90.2064 454.264 90.0811 454.794 90.0811C455.589 90.0811 456.214 90.3317 456.669 90.833C457.127 91.3343 457.356 92.0451 457.356 92.9653V93.5991H453.656C453.706 93.9787 453.856 94.283 454.107 94.5122C454.361 94.7414 454.682 94.856 455.068 94.856C455.666 94.856 456.134 94.6393 456.47 94.2061L457.233 95.0601C457 95.3895 456.685 95.6473 456.288 95.8335C455.89 96.0161 455.45 96.1074 454.966 96.1074ZM454.789 91.3379C454.481 91.3379 454.23 91.4417 454.037 91.6494C453.847 91.8571 453.726 92.1543 453.672 92.541H455.831V92.4175C455.824 92.0737 455.731 91.8088 455.552 91.6226C455.373 91.4328 455.118 91.3379 454.789 91.3379ZM467.223 93.395C467.162 94.2365 466.851 94.8989 466.289 95.3823C465.73 95.8657 464.992 96.1074 464.076 96.1074C463.073 96.1074 462.284 95.7708 461.707 95.0977C461.134 94.4209 460.848 93.4935 460.848 92.3154V91.8374C460.848 91.0854 460.98 90.423 461.245 89.8501C461.51 89.2772 461.888 88.8385 462.378 88.5342C462.873 88.2262 463.445 88.0723 464.097 88.0723C465 88.0723 465.726 88.314 466.278 88.7974C466.829 89.2808 467.148 89.9593 467.234 90.833H465.623C465.583 90.3281 465.442 89.9629 465.198 89.7373C464.958 89.5081 464.591 89.3936 464.097 89.3936C463.56 89.3936 463.157 89.5869 462.889 89.9736C462.624 90.3568 462.488 90.953 462.48 91.7622V92.353C462.48 93.1981 462.608 93.8158 462.862 94.2061C463.12 94.5964 463.524 94.7915 464.076 94.7915C464.573 94.7915 464.944 94.6787 465.188 94.4531C465.435 94.224 465.576 93.8713 465.612 93.395H467.223ZM467.938 93.0405C467.938 92.464 468.049 91.9502 468.271 91.499C468.493 91.0479 468.811 90.6987 469.227 90.4517C469.646 90.2046 470.131 90.0811 470.682 90.0811C471.466 90.0811 472.105 90.321 472.6 90.8008C473.097 91.2806 473.375 91.9323 473.432 92.7559L473.443 93.1533C473.443 94.0449 473.194 94.7611 472.696 95.3018C472.199 95.8389 471.531 96.1074 470.693 96.1074C469.855 96.1074 469.185 95.8389 468.684 95.3018C468.186 94.7646 467.938 94.0342 467.938 93.1104V93.0405ZM469.49 93.1533C469.49 93.7048 469.594 94.1273 469.801 94.4209C470.009 94.7109 470.306 94.856 470.693 94.856C471.069 94.856 471.362 94.7127 471.574 94.4263C471.785 94.1362 471.891 93.6743 471.891 93.0405C471.891 92.4998 471.785 92.0809 471.574 91.7837C471.362 91.4865 471.065 91.3379 470.682 91.3379C470.303 91.3379 470.009 91.4865 469.801 91.7837C469.594 92.0773 469.49 92.5339 469.49 93.1533ZM476.037 96H474.479V87.75H476.037V96ZM480.801 95.4092C480.418 95.8747 479.888 96.1074 479.211 96.1074C478.588 96.1074 478.112 95.9284 477.783 95.5703C477.457 95.2122 477.29 94.6877 477.283 93.9966V90.1885H478.835V93.9429C478.835 94.548 479.111 94.8506 479.663 94.8506C480.189 94.8506 480.551 94.668 480.748 94.3027V90.1885H482.305V96H480.844L480.801 95.4092ZM484.932 90.1885L484.98 90.8384C485.392 90.3335 485.949 90.0811 486.65 90.0811C487.399 90.0811 487.913 90.3765 488.192 90.9673C488.6 90.3765 489.182 90.0811 489.938 90.0811C490.568 90.0811 491.037 90.2655 491.345 90.6343C491.653 90.9995 491.807 91.5509 491.807 92.2886V96H490.249V92.2939C490.249 91.9645 490.185 91.7246 490.056 91.5742C489.927 91.4202 489.699 91.3433 489.374 91.3433C488.908 91.3433 488.586 91.5653 488.407 92.0093L488.412 96H486.86V92.2993C486.86 91.9627 486.794 91.7192 486.661 91.5688C486.529 91.4185 486.303 91.3433 485.984 91.3433C485.544 91.3433 485.225 91.5259 485.028 91.8911V96H483.476V90.1885H484.932ZM494.433 90.1885L494.481 90.8599C494.897 90.3407 495.454 90.0811 496.152 90.0811C496.768 90.0811 497.226 90.2619 497.527 90.6235C497.828 90.9852 497.982 91.5259 497.989 92.2456V96H496.437V92.2832C496.437 91.9538 496.365 91.7157 496.222 91.5688C496.078 91.4185 495.84 91.3433 495.507 91.3433C495.07 91.3433 494.743 91.5295 494.524 91.9019V96H492.972V90.1885H494.433Z" fill="white"/>
<path d="M38.4116 95H36.8003V87.1797H38.4116V95ZM41.2637 89.1885L41.312 89.8384C41.7238 89.3335 42.2806 89.0811 42.9824 89.0811C43.7308 89.0811 44.2446 89.3765 44.5239 89.9673C44.9321 89.3765 45.514 89.0811 46.2695 89.0811C46.8997 89.0811 47.3688 89.2655 47.6768 89.6343C47.9847 89.9995 48.1387 90.5509 48.1387 91.2886V95H46.5811V91.2939C46.5811 90.9645 46.5166 90.7246 46.3877 90.5742C46.2588 90.4202 46.0314 90.3433 45.7056 90.3433C45.2401 90.3433 44.9178 90.5653 44.7388 91.0093L44.7441 95H43.1919V91.2993C43.1919 90.9627 43.1257 90.7192 42.9932 90.5688C42.8607 90.4185 42.6351 90.3433 42.3164 90.3433C41.876 90.3433 41.5573 90.5259 41.3604 90.8911V95H39.8081V89.1885H41.2637ZM54.5679 92.1479C54.5679 93.0431 54.3638 93.7611 53.9556 94.3018C53.5509 94.8389 53.0031 95.1074 52.312 95.1074C51.7248 95.1074 51.2503 94.9033 50.8887 94.4951V97.2344H49.3364V89.1885H50.7759L50.8296 89.7578C51.2056 89.3066 51.6961 89.0811 52.3013 89.0811C53.0174 89.0811 53.5742 89.346 53.9717 89.876C54.3691 90.4059 54.5679 91.1364 54.5679 92.0674V92.1479ZM53.0156 92.0352C53.0156 91.4945 52.9189 91.0773 52.7256 90.7837C52.5358 90.4901 52.2583 90.3433 51.8931 90.3433C51.4061 90.3433 51.0713 90.5295 50.8887 90.9019V93.2812C51.0785 93.6644 51.4168 93.856 51.9038 93.856C52.645 93.856 53.0156 93.249 53.0156 92.0352ZM55.293 92.0405C55.293 91.464 55.404 90.9502 55.626 90.499C55.848 90.0479 56.1667 89.6987 56.582 89.4517C57.001 89.2046 57.4862 89.0811 58.0376 89.0811C58.8218 89.0811 59.4609 89.321 59.9551 89.8008C60.4528 90.2806 60.7303 90.9323 60.7876 91.7559L60.7983 92.1533C60.7983 93.0449 60.5495 93.7611 60.0518 94.3018C59.554 94.8389 58.8862 95.1074 58.0483 95.1074C57.2104 95.1074 56.5409 94.8389 56.0396 94.3018C55.5418 93.7646 55.293 93.0342 55.293 92.1104V92.0405ZM56.8452 92.1533C56.8452 92.7048 56.9491 93.1273 57.1567 93.4209C57.3644 93.7109 57.6616 93.856 58.0483 93.856C58.4243 93.856 58.7179 93.7127 58.9292 93.4263C59.1405 93.1362 59.2461 92.6743 59.2461 92.0405C59.2461 91.4998 59.1405 91.0809 58.9292 90.7837C58.7179 90.4865 58.4207 90.3379 58.0376 90.3379C57.658 90.3379 57.3644 90.4865 57.1567 90.7837C56.9491 91.0773 56.8452 91.5339 56.8452 92.1533ZM65.02 90.644C64.8088 90.6154 64.6226 90.6011 64.4614 90.6011C63.8742 90.6011 63.4893 90.7998 63.3066 91.1973V95H61.7544V89.1885H63.2207L63.2637 89.8813C63.5752 89.3478 64.0067 89.0811 64.5581 89.0811C64.73 89.0811 64.8911 89.1043 65.0415 89.1509L65.02 90.644ZM67.8989 87.7598V89.1885H68.8926V90.3271H67.8989V93.2275C67.8989 93.4424 67.9401 93.5964 68.0225 93.6895C68.1048 93.7826 68.2624 93.8291 68.4951 93.8291C68.667 93.8291 68.8192 93.8166 68.9517 93.7915V94.9678C68.6473 95.0609 68.334 95.1074 68.0117 95.1074C66.9232 95.1074 66.3682 94.5578 66.3467 93.4585V90.3271H65.498V89.1885H66.3467V87.7598H67.8989Z" fill="white"/>
<path d="M179.113 93.3887H176.288L175.751 95H174.038L176.949 87.1797H178.442L181.369 95H179.656L179.113 93.3887ZM176.723 92.0835H178.678L177.695 89.1562L176.723 92.0835ZM181.756 92.0513C181.756 91.1453 181.958 90.4238 182.363 89.8867C182.771 89.3496 183.328 89.0811 184.033 89.0811C184.599 89.0811 185.066 89.2923 185.435 89.7148V86.75H186.993V95H185.591L185.516 94.3823C185.129 94.8657 184.631 95.1074 184.022 95.1074C183.339 95.1074 182.789 94.8389 182.374 94.3018C181.962 93.7611 181.756 93.0109 181.756 92.0513ZM183.308 92.1641C183.308 92.7083 183.403 93.1255 183.593 93.4155C183.783 93.7056 184.058 93.8506 184.42 93.8506C184.9 93.8506 185.238 93.6483 185.435 93.2437V90.9502C185.242 90.5456 184.907 90.3433 184.431 90.3433C183.682 90.3433 183.308 90.9502 183.308 92.1641ZM187.954 92.0513C187.954 91.1453 188.156 90.4238 188.561 89.8867C188.969 89.3496 189.526 89.0811 190.231 89.0811C190.797 89.0811 191.264 89.2923 191.633 89.7148V86.75H193.191V95H191.789L191.714 94.3823C191.327 94.8657 190.829 95.1074 190.221 95.1074C189.537 95.1074 188.987 94.8389 188.572 94.3018C188.16 93.7611 187.954 93.0109 187.954 92.0513ZM189.506 92.1641C189.506 92.7083 189.601 93.1255 189.791 93.4155C189.981 93.7056 190.257 93.8506 190.618 93.8506C191.098 93.8506 191.436 93.6483 191.633 93.2437V90.9502C191.44 90.5456 191.105 90.3433 190.629 90.3433C189.881 90.3433 189.506 90.9502 189.506 92.1641ZM200.13 92.1372H198.847V95H197.235V87.1797H200.141C201.065 87.1797 201.778 87.3856 202.279 87.7974C202.78 88.2091 203.031 88.791 203.031 89.543C203.031 90.0765 202.914 90.5223 202.682 90.8804C202.452 91.2349 202.103 91.5177 201.634 91.729L203.326 94.9248V95H201.597L200.13 92.1372ZM198.847 90.832H200.146C200.551 90.832 200.864 90.73 201.086 90.5259C201.308 90.3182 201.419 90.0335 201.419 89.6719C201.419 89.3031 201.314 89.013 201.103 88.8018C200.895 88.5905 200.574 88.4849 200.141 88.4849H198.847V90.832ZM203.917 92.0405C203.917 91.464 204.028 90.9502 204.25 90.499C204.472 90.0479 204.791 89.6987 205.206 89.4517C205.625 89.2046 206.11 89.0811 206.662 89.0811C207.446 89.0811 208.085 89.321 208.579 89.8008C209.077 90.2806 209.354 90.9323 209.412 91.7559L209.422 92.1533C209.422 93.0449 209.174 93.7611 208.676 94.3018C208.178 94.8389 207.51 95.1074 206.672 95.1074C205.834 95.1074 205.165 94.8389 204.664 94.3018C204.166 93.7646 203.917 93.0342 203.917 92.1104V92.0405ZM205.469 92.1533C205.469 92.7048 205.573 93.1273 205.781 93.4209C205.988 93.7109 206.286 93.856 206.672 93.856C207.048 93.856 207.342 93.7127 207.553 93.4263C207.764 93.1362 207.87 92.6743 207.87 92.0405C207.87 91.4998 207.764 91.0809 207.553 90.7837C207.342 90.4865 207.045 90.3379 206.662 90.3379C206.282 90.3379 205.988 90.4865 205.781 90.7837C205.573 91.0773 205.469 91.5339 205.469 92.1533ZM215.433 92.8892L216.195 89.1885H217.694L216.211 95H214.912L213.811 91.3423L212.709 95H211.415L209.933 89.1885H211.431L212.188 92.8838L213.252 89.1885H214.375L215.433 92.8892Z" fill="white"/>
<path d="M256.113 94.3887H253.288L252.751 96H251.038L253.949 88.1797H255.442L258.369 96H256.656L256.113 94.3887ZM253.723 93.0835H255.678L254.695 90.1562L253.723 93.0835ZM258.756 93.0513C258.756 92.1453 258.958 91.4238 259.363 90.8867C259.771 90.3496 260.328 90.0811 261.033 90.0811C261.599 90.0811 262.066 90.2923 262.435 90.7148V87.75H263.993V96H262.591L262.516 95.3823C262.129 95.8657 261.631 96.1074 261.022 96.1074C260.339 96.1074 259.789 95.8389 259.374 95.3018C258.962 94.7611 258.756 94.0109 258.756 93.0513ZM260.308 93.1641C260.308 93.7083 260.403 94.1255 260.593 94.4155C260.783 94.7056 261.058 94.8506 261.42 94.8506C261.9 94.8506 262.238 94.6483 262.435 94.2437V91.9502C262.242 91.5456 261.907 91.3433 261.431 91.3433C260.682 91.3433 260.308 91.9502 260.308 93.1641ZM264.954 93.0513C264.954 92.1453 265.156 91.4238 265.561 90.8867C265.969 90.3496 266.526 90.0811 267.231 90.0811C267.797 90.0811 268.264 90.2923 268.633 90.7148V87.75H270.191V96H268.789L268.714 95.3823C268.327 95.8657 267.829 96.1074 267.221 96.1074C266.537 96.1074 265.987 95.8389 265.572 95.3018C265.16 94.7611 264.954 94.0109 264.954 93.0513ZM266.506 93.1641C266.506 93.7083 266.601 94.1255 266.791 94.4155C266.981 94.7056 267.257 94.8506 267.618 94.8506C268.098 94.8506 268.436 94.6483 268.633 94.2437V91.9502C268.44 91.5456 268.105 91.3433 267.629 91.3433C266.881 91.3433 266.506 91.9502 266.506 93.1641ZM280.375 93.395C280.314 94.2365 280.002 94.8989 279.44 95.3823C278.881 95.8657 278.144 96.1074 277.227 96.1074C276.224 96.1074 275.435 95.7708 274.858 95.0977C274.285 94.4209 273.999 93.4935 273.999 92.3154V91.8374C273.999 91.0854 274.132 90.423 274.396 89.8501C274.661 89.2772 275.039 88.8385 275.53 88.5342C276.024 88.2262 276.597 88.0723 277.249 88.0723C278.151 88.0723 278.878 88.314 279.429 88.7974C279.981 89.2808 280.299 89.9593 280.385 90.833H278.774C278.735 90.3281 278.593 89.9629 278.35 89.7373C278.11 89.5081 277.743 89.3936 277.249 89.3936C276.711 89.3936 276.309 89.5869 276.04 89.9736C275.775 90.3568 275.639 90.953 275.632 91.7622V92.353C275.632 93.1981 275.759 93.8158 276.013 94.2061C276.271 94.5964 276.676 94.7915 277.227 94.7915C277.725 94.7915 278.095 94.6787 278.339 94.4531C278.586 94.224 278.727 93.8713 278.763 93.395H280.375ZM281.089 93.0405C281.089 92.464 281.2 91.9502 281.422 91.499C281.644 91.0479 281.963 90.6987 282.378 90.4517C282.797 90.2046 283.282 90.0811 283.833 90.0811C284.618 90.0811 285.257 90.321 285.751 90.8008C286.249 91.2806 286.526 91.9323 286.583 92.7559L286.594 93.1533C286.594 94.0449 286.345 94.7611 285.848 95.3018C285.35 95.8389 284.682 96.1074 283.844 96.1074C283.006 96.1074 282.337 95.8389 281.835 95.3018C281.338 94.7646 281.089 94.0342 281.089 93.1104V93.0405ZM282.641 93.1533C282.641 93.7048 282.745 94.1273 282.953 94.4209C283.16 94.7109 283.458 94.856 283.844 94.856C284.22 94.856 284.514 94.7127 284.725 94.4263C284.936 94.1362 285.042 93.6743 285.042 93.0405C285.042 92.4998 284.936 92.0809 284.725 91.7837C284.514 91.4865 284.217 91.3379 283.833 91.3379C283.454 91.3379 283.16 91.4865 282.953 91.7837C282.745 92.0773 282.641 92.5339 282.641 93.1533ZM289.188 96H287.631V87.75H289.188V96ZM293.953 95.4092C293.569 95.8747 293.04 96.1074 292.363 96.1074C291.74 96.1074 291.264 95.9284 290.934 95.5703C290.608 95.2122 290.442 94.6877 290.435 93.9966V90.1885H291.987V93.9429C291.987 94.548 292.263 94.8506 292.814 94.8506C293.34 94.8506 293.702 94.668 293.899 94.3027V90.1885H295.457V96H293.996L293.953 95.4092ZM298.083 90.1885L298.131 90.8384C298.543 90.3335 299.1 90.0811 299.802 90.0811C300.55 90.0811 301.064 90.3765 301.343 90.9673C301.751 90.3765 302.333 90.0811 303.089 90.0811C303.719 90.0811 304.188 90.2655 304.496 90.6343C304.804 90.9995 304.958 91.5509 304.958 92.2886V96H303.4V92.2939C303.4 91.9645 303.336 91.7246 303.207 91.5742C303.078 91.4202 302.851 91.3433 302.525 91.3433C302.059 91.3433 301.737 91.5653 301.558 92.0093L301.563 96H300.011V92.2993C300.011 91.9627 299.945 91.7192 299.812 91.5688C299.68 91.4185 299.454 91.3433 299.136 91.3433C298.695 91.3433 298.377 91.5259 298.18 91.8911V96H296.627V90.1885H298.083ZM307.584 90.1885L307.633 90.8599C308.048 90.3407 308.605 90.0811 309.303 90.0811C309.919 90.0811 310.377 90.2619 310.678 90.6235C310.979 90.9852 311.133 91.5259 311.14 92.2456V96H309.588V92.2832C309.588 91.9538 309.516 91.7157 309.373 91.5688C309.23 91.4185 308.992 91.3433 308.659 91.3433C308.222 91.3433 307.894 91.5295 307.676 91.9019V96H306.124V90.1885H307.584Z" fill="white"/>
<line x1="30.5" y1="110" x2="30.5" y2="377" stroke="black"/>
<line x1="60.5" y1="110" x2="60.5" y2="377" stroke="black"/>
<line x1="90.5" y1="110" x2="90.5" y2="377" stroke="black"/>
<line x1="120.5" y1="111" x2="120.5" y2="378" stroke="black"/>
<line x1="150.5" y1="111" x2="150.5" y2="378" stroke="black"/>
<line x1="180.5" y1="110" x2="180.5" y2="377" stroke="black"/>
<line x1="210.5" y1="111" x2="210.5" y2="378" stroke="black"/>
<line x1="240.5" y1="110" x2="240.5" y2="377" stroke="black"/>
<line x1="270.5" y1="111" x2="270.5" y2="378" stroke="black"/>
<line x1="300.5" y1="111" x2="300.5" y2="378" stroke="black"/>
<line x1="330.5" y1="111" x2="330.5" y2="378" stroke="black"/>
<line x1="360.5" y1="110" x2="360.5" y2="377" stroke="black"/>
<line x1="390.5" y1="111" x2="390.5" y2="378" stroke="black"/>
<line x1="420.5" y1="111" x2="420.5" y2="378" stroke="black"/>
<line x1="450.5" y1="110" x2="450.5" y2="377" stroke="black"/>
<line x1="480.5" y1="110" x2="480.5" y2="377" stroke="black"/>
<line x1="510.5" y1="110" x2="510.5" y2="377" stroke="black"/>
<line x1="540.5" y1="110" x2="540.5" y2="377" stroke="black"/>
<line x1="0.000786163" y1="139.5" x2="636.001" y2="140.5" stroke="black"/>
<line x1="1.00079" y1="169.5" x2="637.001" y2="170.5" stroke="black"/>
<line x1="1.00079" y1="199.5" x2="637.001" y2="200.5" stroke="black"/>
<line x1="1.00079" y1="229.5" x2="637.001" y2="230.5" stroke="black"/>
<line x1="1.00079" y1="259.5" x2="637.001" y2="260.5" stroke="black"/>
<line x1="1.00079" y1="289.5" x2="637.001" y2="290.5" stroke="black"/>
<line x1="0.000786163" y1="319.5" x2="636.001" y2="320.5" stroke="black"/>
<line x1="1.00079" y1="350.5" x2="637.001" y2="351.5" stroke="black"/>
<path d="M47.5781 127.242H44.4961L43.9102 129H42.041L45.2168 120.469H46.8457L50.0391 129H48.1699L47.5781 127.242ZM44.9707 125.818H47.1035L46.0312 122.625L44.9707 125.818Z" fill="black"/>
<path d="M42.832 154.805L43.3242 150.469H48.1055V151.881H44.7129L44.502 153.715C44.9043 153.5 45.332 153.393 45.7852 153.393C46.5977 153.393 47.2344 153.645 47.6953 154.148C48.1562 154.652 48.3867 155.357 48.3867 156.264C48.3867 156.814 48.2695 157.309 48.0352 157.746C47.8047 158.18 47.4727 158.518 47.0391 158.76C46.6055 158.998 46.0938 159.117 45.5039 159.117C44.9883 159.117 44.5098 159.014 44.0684 158.807C43.627 158.596 43.2773 158.301 43.0195 157.922C42.7656 157.543 42.6309 157.111 42.6152 156.627H44.291C44.3262 156.982 44.4492 157.26 44.6602 157.459C44.875 157.654 45.1543 157.752 45.498 157.752C45.8809 157.752 46.1758 157.615 46.3828 157.342C46.5898 157.064 46.6934 156.674 46.6934 156.17C46.6934 155.686 46.5742 155.314 46.3359 155.057C46.0977 154.799 45.7598 154.67 45.3223 154.67C44.9199 154.67 44.5938 154.775 44.3438 154.986L44.1797 155.139L42.832 154.805Z" fill="black"/>
<path d="M77.3809 151.418L74.082 159H72.2949L75.5996 151.84H71.3574V150.469H77.3809V151.418Z" fill="black"/>
<path d="M107.381 151.418L104.082 159H102.295L105.6 151.84H101.357V150.469H107.381V151.418Z" fill="black"/>
<path d="M137.174 150.381V151.775H137.01C136.244 151.787 135.627 151.986 135.158 152.373C134.693 152.76 134.414 153.297 134.32 153.984C134.773 153.523 135.346 153.293 136.037 153.293C136.779 153.293 137.369 153.559 137.807 154.09C138.244 154.621 138.463 155.32 138.463 156.188C138.463 156.742 138.342 157.244 138.1 157.693C137.861 158.143 137.521 158.492 137.08 158.742C136.643 158.992 136.146 159.117 135.592 159.117C134.693 159.117 133.967 158.805 133.412 158.18C132.861 157.555 132.586 156.721 132.586 155.678V155.068C132.586 154.143 132.76 153.326 133.107 152.619C133.459 151.908 133.961 151.359 134.613 150.973C135.27 150.582 136.029 150.385 136.893 150.381H137.174ZM135.521 154.652C135.248 154.652 135 154.725 134.777 154.869C134.555 155.01 134.391 155.197 134.285 155.432V155.947C134.285 156.514 134.396 156.957 134.619 157.277C134.842 157.594 135.154 157.752 135.557 157.752C135.92 157.752 136.213 157.609 136.436 157.324C136.662 157.035 136.775 156.662 136.775 156.205C136.775 155.74 136.662 155.365 136.436 155.08C136.209 154.795 135.904 154.652 135.521 154.652Z" fill="black"/>
<rect x="211" y="141" width="28" height="28" fill="white" stroke="#2F4DE8" stroke-width="2"/>
<path d="M161.832 154.805L162.324 150.469H167.105V151.881H163.713L163.502 153.715C163.904 153.5 164.332 153.393 164.785 153.393C165.598 153.393 166.234 153.645 166.695 154.148C167.156 154.652 167.387 155.357 167.387 156.264C167.387 156.814 167.27 157.309 167.035 157.746C166.805 158.18 166.473 158.518 166.039 158.76C165.605 158.998 165.094 159.117 164.504 159.117C163.988 159.117 163.51 159.014 163.068 158.807C162.627 158.596 162.277 158.301 162.02 157.922C161.766 157.543 161.631 157.111 161.615 156.627H163.291C163.326 156.982 163.449 157.26 163.66 157.459C163.875 157.654 164.154 157.752 164.498 157.752C164.881 157.752 165.176 157.615 165.383 157.342C165.59 157.064 165.693 156.674 165.693 156.17C165.693 155.686 165.574 155.314 165.336 155.057C165.098 154.799 164.76 154.67 164.322 154.67C163.92 154.67 163.594 154.775 163.344 154.986L163.18 155.139L161.832 154.805Z" fill="black"/>
<path d="M197.141 152.736C197.141 153.15 197.037 153.518 196.83 153.838C196.623 154.158 196.338 154.414 195.975 154.605C196.389 154.805 196.717 155.08 196.959 155.432C197.201 155.779 197.322 156.189 197.322 156.662C197.322 157.42 197.064 158.02 196.549 158.461C196.033 158.898 195.332 159.117 194.445 159.117C193.559 159.117 192.855 158.896 192.336 158.455C191.816 158.014 191.557 157.416 191.557 156.662C191.557 156.189 191.678 155.777 191.92 155.426C192.162 155.074 192.488 154.801 192.898 154.605C192.535 154.414 192.25 154.158 192.043 153.838C191.84 153.518 191.738 153.15 191.738 152.736C191.738 152.01 191.98 151.432 192.465 151.002C192.949 150.568 193.607 150.352 194.439 150.352C195.268 150.352 195.924 150.566 196.408 150.996C196.896 151.422 197.141 152.002 197.141 152.736ZM195.623 156.539C195.623 156.168 195.516 155.871 195.301 155.648C195.086 155.426 194.797 155.314 194.434 155.314C194.074 155.314 193.787 155.426 193.572 155.648C193.357 155.867 193.25 156.164 193.25 156.539C193.25 156.902 193.355 157.195 193.566 157.418C193.777 157.641 194.07 157.752 194.445 157.752C194.812 157.752 195.1 157.645 195.307 157.43C195.518 157.215 195.623 156.918 195.623 156.539ZM195.447 152.818C195.447 152.486 195.359 152.221 195.184 152.021C195.008 151.818 194.76 151.717 194.439 151.717C194.123 151.717 193.877 151.814 193.701 152.01C193.525 152.205 193.438 152.475 193.438 152.818C193.438 153.158 193.525 153.432 193.701 153.639C193.877 153.846 194.125 153.949 194.445 153.949C194.766 153.949 195.012 153.846 195.184 153.639C195.359 153.432 195.447 153.158 195.447 152.818Z" fill="black"/>
<path d="M222.303 153.984H223.205C223.635 153.984 223.953 153.877 224.16 153.662C224.367 153.447 224.471 153.162 224.471 152.807C224.471 152.463 224.367 152.195 224.16 152.004C223.957 151.812 223.676 151.717 223.316 151.717C222.992 151.717 222.721 151.807 222.502 151.986C222.283 152.162 222.174 152.393 222.174 152.678H220.48C220.48 152.232 220.6 151.834 220.838 151.482C221.08 151.127 221.416 150.85 221.846 150.65C222.279 150.451 222.756 150.352 223.275 150.352C224.178 150.352 224.885 150.568 225.396 151.002C225.908 151.432 226.164 152.025 226.164 152.783C226.164 153.174 226.045 153.533 225.807 153.861C225.568 154.189 225.256 154.441 224.869 154.617C225.35 154.789 225.707 155.047 225.941 155.391C226.18 155.734 226.299 156.141 226.299 156.609C226.299 157.367 226.021 157.975 225.467 158.432C224.916 158.889 224.186 159.117 223.275 159.117C222.424 159.117 221.727 158.893 221.184 158.443C220.645 157.994 220.375 157.4 220.375 156.662H222.068C222.068 156.982 222.188 157.244 222.426 157.447C222.668 157.65 222.965 157.752 223.316 157.752C223.719 157.752 224.033 157.646 224.26 157.436C224.49 157.221 224.605 156.938 224.605 156.586C224.605 155.734 224.137 155.309 223.199 155.309H222.303V153.984ZM233.031 152.736C233.031 153.15 232.928 153.518 232.721 153.838C232.514 154.158 232.229 154.414 231.865 154.605C232.279 154.805 232.607 155.08 232.85 155.432C233.092 155.779 233.213 156.189 233.213 156.662C233.213 157.42 232.955 158.02 232.439 158.461C231.924 158.898 231.223 159.117 230.336 159.117C229.449 159.117 228.746 158.896 228.227 158.455C227.707 158.014 227.447 157.416 227.447 156.662C227.447 156.189 227.568 155.777 227.811 155.426C228.053 155.074 228.379 154.801 228.789 154.605C228.426 154.414 228.141 154.158 227.934 153.838C227.73 153.518 227.629 153.15 227.629 152.736C227.629 152.01 227.871 151.432 228.355 151.002C228.84 150.568 229.498 150.352 230.33 150.352C231.158 150.352 231.814 150.566 232.299 150.996C232.787 151.422 233.031 152.002 233.031 152.736ZM231.514 156.539C231.514 156.168 231.406 155.871 231.191 155.648C230.977 155.426 230.688 155.314 230.324 155.314C229.965 155.314 229.678 155.426 229.463 155.648C229.248 155.867 229.141 156.164 229.141 156.539C229.141 156.902 229.246 157.195 229.457 157.418C229.668 157.641 229.961 157.752 230.336 157.752C230.703 157.752 230.99 157.645 231.197 157.43C231.408 157.215 231.514 156.918 231.514 156.539ZM231.338 152.818C231.338 152.486 231.25 152.221 231.074 152.021C230.898 151.818 230.65 151.717 230.33 151.717C230.014 151.717 229.768 151.814 229.592 152.01C229.416 152.205 229.328 152.475 229.328 152.818C229.328 153.158 229.416 153.432 229.592 153.639C229.768 153.846 230.016 153.949 230.336 153.949C230.656 153.949 230.902 153.846 231.074 153.639C231.25 153.432 231.338 153.158 231.338 152.818Z" fill="black"/>
<path d="M15.6934 159H14V152.473L11.9785 153.1V151.723L15.5117 150.457H15.6934V159Z" fill="black"/>
<path d="M17.4277 190H11.5801V188.84L14.3398 185.898C14.7188 185.484 14.998 185.123 15.1777 184.814C15.3613 184.506 15.4531 184.213 15.4531 183.936C15.4531 183.557 15.3574 183.26 15.166 183.045C14.9746 182.826 14.7012 182.717 14.3457 182.717C13.9629 182.717 13.6602 182.85 13.4375 183.115C13.2188 183.377 13.1094 183.723 13.1094 184.152H11.4102C11.4102 183.633 11.5332 183.158 11.7793 182.729C12.0293 182.299 12.3809 181.963 12.834 181.721C13.2871 181.475 13.8008 181.352 14.375 181.352C15.2539 181.352 15.9355 181.562 16.4199 181.984C16.9082 182.406 17.1523 183.002 17.1523 183.771C17.1523 184.193 17.043 184.623 16.8242 185.061C16.6055 185.498 16.2305 186.008 15.6992 186.59L13.7598 188.635H17.4277V190Z" fill="black"/>
<path d="M13.3027 213.984H14.2051C14.6348 213.984 14.9531 213.877 15.1602 213.662C15.3672 213.447 15.4707 213.162 15.4707 212.807C15.4707 212.463 15.3672 212.195 15.1602 212.004C14.957 211.812 14.6758 211.717 14.3164 211.717C13.9922 211.717 13.7207 211.807 13.502 211.986C13.2832 212.162 13.1738 212.393 13.1738 212.678H11.4805C11.4805 212.232 11.5996 211.834 11.8379 211.482C12.0801 211.127 12.416 210.85 12.8457 210.65C13.2793 210.451 13.7559 210.352 14.2754 210.352C15.1777 210.352 15.8848 210.568 16.3965 211.002C16.9082 211.432 17.1641 212.025 17.1641 212.783C17.1641 213.174 17.0449 213.533 16.8066 213.861C16.5684 214.189 16.2559 214.441 15.8691 214.617C16.3496 214.789 16.707 215.047 16.9414 215.391C17.1797 215.734 17.2988 216.141 17.2988 216.609C17.2988 217.367 17.0215 217.975 16.4668 218.432C15.916 218.889 15.1855 219.117 14.2754 219.117C13.4238 219.117 12.7266 218.893 12.1836 218.443C11.6445 217.994 11.375 217.4 11.375 216.662H13.0684C13.0684 216.982 13.1875 217.244 13.4258 217.447C13.668 217.65 13.9648 217.752 14.3164 217.752C14.7188 217.752 15.0332 217.646 15.2598 217.436C15.4902 217.221 15.6055 216.938 15.6055 216.586C15.6055 215.734 15.1367 215.309 14.1992 215.309H13.3027V213.984Z" fill="black"/>
<path d="M17.5898 246.789H18.5566V248.154H17.5898V250H15.8965V248.154H12.3984L12.3223 247.088L15.8789 241.469H17.5898V246.789ZM14.0098 246.789H15.8965V243.777L15.7852 243.971L14.0098 246.789Z" fill="black"/>
<path d="M11.832 274.805L12.3242 270.469H17.1055V271.881H13.7129L13.502 273.715C13.9043 273.5 14.332 273.393 14.7852 273.393C15.5977 273.393 16.2344 273.645 16.6953 274.148C17.1562 274.652 17.3867 275.357 17.3867 276.264C17.3867 276.814 17.2695 277.309 17.0352 277.746C16.8047 278.18 16.4727 278.518 16.0391 278.76C15.6055 278.998 15.0938 279.117 14.5039 279.117C13.9883 279.117 13.5098 279.014 13.0684 278.807C12.627 278.596 12.2773 278.301 12.0195 277.922C11.7656 277.543 11.6309 277.111 11.6152 276.627H13.291C13.3262 276.982 13.4492 277.26 13.6602 277.459C13.875 277.654 14.1543 277.752 14.498 277.752C14.8809 277.752 15.1758 277.615 15.3828 277.342C15.5898 277.064 15.6934 276.674 15.6934 276.17C15.6934 275.686 15.5742 275.314 15.3359 275.057C15.0977 274.799 14.7598 274.67 14.3223 274.67C13.9199 274.67 13.5938 274.775 13.3438 274.986L13.1797 275.139L11.832 274.805Z" fill="black"/>
<path d="M17.1738 300.381V301.775H17.0098C16.2441 301.787 15.627 301.986 15.1582 302.373C14.6934 302.76 14.4141 303.297 14.3203 303.984C14.7734 303.523 15.3457 303.293 16.0371 303.293C16.7793 303.293 17.3691 303.559 17.8066 304.09C18.2441 304.621 18.4629 305.32 18.4629 306.188C18.4629 306.742 18.3418 307.244 18.0996 307.693C17.8613 308.143 17.5215 308.492 17.0801 308.742C16.6426 308.992 16.1465 309.117 15.5918 309.117C14.6934 309.117 13.9668 308.805 13.4121 308.18C12.8613 307.555 12.5859 306.721 12.5859 305.678V305.068C12.5859 304.143 12.7598 303.326 13.1074 302.619C13.459 301.908 13.9609 301.359 14.6133 300.973C15.2695 300.582 16.0293 300.385 16.8926 300.381H17.1738ZM15.5215 304.652C15.248 304.652 15 304.725 14.7773 304.869C14.5547 305.01 14.3906 305.197 14.2852 305.432V305.947C14.2852 306.514 14.3965 306.957 14.6191 307.277C14.8418 307.594 15.1543 307.752 15.5566 307.752C15.9199 307.752 16.2129 307.609 16.4355 307.324C16.6621 307.035 16.7754 306.662 16.7754 306.205C16.7754 305.74 16.6621 305.365 16.4355 305.08C16.209 304.795 15.9043 304.652 15.5215 304.652Z" fill="black"/>
<path d="M17.3809 331.418L14.082 339H12.2949L15.5996 331.84H11.3574V330.469H17.3809V331.418Z" fill="black"/>
<path d="M17.1406 363.736C17.1406 364.15 17.0371 364.518 16.8301 364.838C16.623 365.158 16.3379 365.414 15.9746 365.605C16.3887 365.805 16.7168 366.08 16.959 366.432C17.2012 366.779 17.3223 367.189 17.3223 367.662C17.3223 368.42 17.0645 369.02 16.5488 369.461C16.0332 369.898 15.332 370.117 14.4453 370.117C13.5586 370.117 12.8555 369.896 12.3359 369.455C11.8164 369.014 11.5566 368.416 11.5566 367.662C11.5566 367.189 11.6777 366.777 11.9199 366.426C12.1621 366.074 12.4883 365.801 12.8984 365.605C12.5352 365.414 12.25 365.158 12.043 364.838C11.8398 364.518 11.7383 364.15 11.7383 363.736C11.7383 363.01 11.9805 362.432 12.4648 362.002C12.9492 361.568 13.6074 361.352 14.4395 361.352C15.2676 361.352 15.9238 361.566 16.4082 361.996C16.8965 362.422 17.1406 363.002 17.1406 363.736ZM15.623 367.539C15.623 367.168 15.5156 366.871 15.3008 366.648C15.0859 366.426 14.7969 366.314 14.4336 366.314C14.0742 366.314 13.7871 366.426 13.5723 366.648C13.3574 366.867 13.25 367.164 13.25 367.539C13.25 367.902 13.3555 368.195 13.5664 368.418C13.7773 368.641 14.0703 368.752 14.4453 368.752C14.8125 368.752 15.0996 368.645 15.3066 368.43C15.5176 368.215 15.623 367.918 15.623 367.539ZM15.4473 363.818C15.4473 363.486 15.3594 363.221 15.1836 363.021C15.0078 362.818 14.7598 362.717 14.4395 362.717C14.123 362.717 13.877 362.814 13.7012 363.01C13.5254 363.205 13.4375 363.475 13.4375 363.818C13.4375 364.158 13.5254 364.432 13.7012 364.639C13.877 364.846 14.125 364.949 14.4453 364.949C14.7656 364.949 15.0117 364.846 15.1836 364.639C15.3594 364.432 15.4473 364.158 15.4473 363.818Z" fill="black"/>
<path d="M71.7617 129V120.469H74.75C75.7852 120.469 76.5703 120.668 77.1055 121.066C77.6406 121.461 77.9082 122.041 77.9082 122.807C77.9082 123.225 77.8008 123.594 77.5859 123.914C77.3711 124.23 77.0723 124.463 76.6895 124.611C77.127 124.721 77.4707 124.941 77.7207 125.273C77.9746 125.605 78.1016 126.012 78.1016 126.492C78.1016 127.312 77.8398 127.934 77.3164 128.355C76.793 128.777 76.0469 128.992 75.0781 129H71.7617ZM73.5195 125.285V127.588H75.0254C75.4395 127.588 75.7617 127.49 75.9922 127.295C76.2266 127.096 76.3438 126.822 76.3438 126.475C76.3438 125.693 75.9395 125.297 75.1309 125.285H73.5195ZM73.5195 124.043H74.8203C75.707 124.027 76.1504 123.674 76.1504 122.982C76.1504 122.596 76.0371 122.318 75.8105 122.15C75.5879 121.979 75.2344 121.893 74.75 121.893H73.5195V124.043Z" fill="black"/>
<path d="M109.459 126.158C109.393 127.076 109.053 127.799 108.439 128.326C107.83 128.854 107.025 129.117 106.025 129.117C104.932 129.117 104.07 128.75 103.441 128.016C102.816 127.277 102.504 126.266 102.504 124.98V124.459C102.504 123.639 102.648 122.916 102.938 122.291C103.227 121.666 103.639 121.188 104.174 120.855C104.713 120.52 105.338 120.352 106.049 120.352C107.033 120.352 107.826 120.615 108.428 121.143C109.029 121.67 109.377 122.41 109.471 123.363H107.713C107.67 122.812 107.516 122.414 107.25 122.168C106.988 121.918 106.588 121.793 106.049 121.793C105.463 121.793 105.023 122.004 104.73 122.426C104.441 122.844 104.293 123.494 104.285 124.377V125.021C104.285 125.943 104.424 126.617 104.701 127.043C104.982 127.469 105.424 127.682 106.025 127.682C106.568 127.682 106.973 127.559 107.238 127.312C107.508 127.062 107.662 126.678 107.701 126.158H109.459Z" fill="black"/>
<path d="M131.762 129V120.469H134.387C135.137 120.469 135.807 120.639 136.396 120.979C136.99 121.314 137.453 121.795 137.785 122.42C138.117 123.041 138.283 123.748 138.283 124.541V124.934C138.283 125.727 138.119 126.432 137.791 127.049C137.467 127.666 137.008 128.145 136.414 128.484C135.82 128.824 135.15 128.996 134.404 129H131.762ZM133.52 121.893V127.588H134.369C135.057 127.588 135.582 127.363 135.945 126.914C136.309 126.465 136.494 125.822 136.502 124.986V124.535C136.502 123.668 136.322 123.012 135.963 122.566C135.604 122.117 135.078 121.893 134.387 121.893H133.52Z" fill="black"/>
<path d="M167.895 125.303H164.52V127.588H168.48V129H162.762V120.469H168.469V121.893H164.52V123.926H167.895V125.303Z" fill="black"/>
<path d="M196.895 125.514H193.52V129H191.762V120.469H197.316V121.893H193.52V124.096H196.895V125.514Z" fill="black"/>
<path d="M229.512 127.922C229.195 128.301 228.748 128.596 228.17 128.807C227.592 129.014 226.951 129.117 226.248 129.117C225.51 129.117 224.861 128.957 224.303 128.637C223.748 128.312 223.318 127.844 223.014 127.23C222.713 126.617 222.559 125.896 222.551 125.068V124.488C222.551 123.637 222.693 122.9 222.979 122.279C223.268 121.654 223.682 121.178 224.221 120.85C224.764 120.518 225.398 120.352 226.125 120.352C227.137 120.352 227.928 120.594 228.498 121.078C229.068 121.559 229.406 122.26 229.512 123.182H227.801C227.723 122.693 227.549 122.336 227.279 122.109C227.014 121.883 226.646 121.77 226.178 121.77C225.58 121.77 225.125 121.994 224.812 122.443C224.5 122.893 224.342 123.561 224.338 124.447V124.992C224.338 125.887 224.508 126.562 224.848 127.02C225.188 127.477 225.686 127.705 226.342 127.705C227.002 127.705 227.473 127.564 227.754 127.283V125.812H226.154V124.518H229.512V127.922Z" fill="black"/>
<path d="M259.705 129H257.947V125.344H254.52V129H252.762V120.469H254.52V123.926H257.947V120.469H259.705V129Z" fill="black"/>
<path d="M283.631 129H281.873V120.469H283.631V129Z" fill="black"/>
<path d="M315.201 120.469H316.959V126.375C316.959 126.918 316.838 127.398 316.596 127.816C316.357 128.23 316.02 128.551 315.582 128.777C315.145 129.004 314.65 129.117 314.1 129.117C313.197 129.117 312.494 128.889 311.99 128.432C311.486 127.971 311.234 127.32 311.234 126.48H313.004C313.004 126.898 313.092 127.207 313.268 127.406C313.443 127.605 313.721 127.705 314.1 127.705C314.436 127.705 314.703 127.59 314.902 127.359C315.102 127.129 315.201 126.801 315.201 126.375V120.469Z" fill="black"/>
<path d="M344.434 125.578L343.52 126.562V129H341.762V120.469H343.52V124.336L344.293 123.275L346.467 120.469H348.629L345.6 124.26L348.717 129H346.625L344.434 125.578Z" fill="black"/>
<path d="M373.52 127.588H377.252V129H371.762V120.469H373.52V127.588Z" fill="black"/>
<path d="M404.059 120.469L406.25 126.656L408.43 120.469H410.738V129H408.975V126.668L409.15 122.643L406.848 129H405.641L403.344 122.648L403.52 126.668V129H401.762V120.469H404.059Z" fill="black"/>
<path d="M438.699 129H436.941L433.52 123.387V129H431.762V120.469H433.52L436.947 126.094V120.469H438.699V129Z" fill="black"/>
<path d="M468.77 124.928C468.77 125.768 468.621 126.504 468.324 127.137C468.027 127.77 467.602 128.258 467.047 128.602C466.496 128.945 465.863 129.117 465.148 129.117C464.441 129.117 463.811 128.947 463.256 128.607C462.701 128.268 462.271 127.783 461.967 127.154C461.662 126.521 461.508 125.795 461.504 124.975V124.553C461.504 123.713 461.654 122.975 461.955 122.338C462.26 121.697 462.688 121.207 463.238 120.867C463.793 120.523 464.426 120.352 465.137 120.352C465.848 120.352 466.479 120.523 467.029 120.867C467.584 121.207 468.012 121.697 468.312 122.338C468.617 122.975 468.77 123.711 468.77 124.547V124.928ZM466.988 124.541C466.988 123.646 466.828 122.967 466.508 122.502C466.188 122.037 465.73 121.805 465.137 121.805C464.547 121.805 464.092 122.035 463.771 122.496C463.451 122.953 463.289 123.625 463.285 124.512V124.928C463.285 125.799 463.445 126.475 463.766 126.955C464.086 127.436 464.547 127.676 465.148 127.676C465.738 127.676 466.191 127.445 466.508 126.984C466.824 126.52 466.984 125.844 466.988 124.957V124.541Z" fill="black"/>
<path d="M493.52 125.994V129H491.762V120.469H495.09C495.73 120.469 496.293 120.586 496.777 120.82C497.266 121.055 497.641 121.389 497.902 121.822C498.164 122.252 498.295 122.742 498.295 123.293C498.295 124.129 498.008 124.789 497.434 125.273C496.863 125.754 496.072 125.994 495.061 125.994H493.52ZM493.52 124.57H495.09C495.555 124.57 495.908 124.461 496.15 124.242C496.396 124.023 496.52 123.711 496.52 123.305C496.52 122.887 496.396 122.549 496.15 122.291C495.904 122.033 495.564 121.9 495.131 121.893H493.52V124.57Z" fill="black"/>
<path d="M528.758 124.928C528.758 125.725 528.629 126.418 528.371 127.008C528.113 127.594 527.756 128.064 527.299 128.42L528.717 129.533L527.598 130.523L525.781 129.064C525.574 129.1 525.359 129.117 525.137 129.117C524.43 129.117 523.799 128.947 523.244 128.607C522.689 128.268 522.26 127.783 521.955 127.154C521.65 126.521 521.496 125.795 521.492 124.975V124.553C521.492 123.713 521.643 122.975 521.943 122.338C522.248 121.697 522.676 121.207 523.227 120.867C523.781 120.523 524.414 120.352 525.125 120.352C525.836 120.352 526.467 120.523 527.018 120.867C527.572 121.207 528 121.697 528.301 122.338C528.605 122.975 528.758 123.711 528.758 124.547V124.928ZM526.977 124.541C526.977 123.646 526.816 122.967 526.496 122.502C526.176 122.037 525.719 121.805 525.125 121.805C524.535 121.805 524.08 122.035 523.76 122.496C523.439 122.953 523.277 123.625 523.273 124.512V124.928C523.273 125.799 523.434 126.475 523.754 126.955C524.074 127.436 524.535 127.676 525.137 127.676C525.727 127.676 526.18 127.445 526.496 126.984C526.812 126.52 526.973 125.844 526.977 124.957V124.541Z" fill="black"/>
<path d="M554.92 125.877H553.52V129H551.762V120.469H554.932C555.939 120.469 556.717 120.693 557.264 121.143C557.811 121.592 558.084 122.227 558.084 123.047C558.084 123.629 557.957 124.115 557.703 124.506C557.453 124.893 557.072 125.201 556.561 125.432L558.406 128.918V129H556.52L554.92 125.877ZM553.52 124.453H554.938C555.379 124.453 555.721 124.342 555.963 124.119C556.205 123.893 556.326 123.582 556.326 123.188C556.326 122.785 556.211 122.469 555.98 122.238C555.754 122.008 555.404 121.893 554.932 121.893H553.52V124.453Z" fill="black"/>
</g>
<defs>
<clipPath id="clip0">
<rect width="570" height="377" fill="white"/>
</clipPath>
</defs>
</svg>
