<svg width="2521" height="2499" viewBox="0 0 2521 2499" fill="none" xmlns="http://www.w3.org/2000/svg">
<g clip-path="url(#clip0)">
<rect width="2521" height="2498.01" rx="600" fill="#1D70CA"/>
<rect x="1120.44" y="1694.56" width="147.427" height="306.773" rx="25" fill="#1D70CA"/>
<path fill-rule="evenodd" clip-rule="evenodd" d="M681.298 569.775C685.234 560.814 694.144 555.113 703.931 555.113L1272.36 555.113C1286.17 555.113 1297.36 566.306 1297.36 580.113V2047.05C1297.36 2059.24 1288.57 2069.74 1276.46 2071.2C1259.04 2073.3 1241.42 2074.37 1223.64 2074.37C996.157 2074.37 796.021 1899 680.225 1633.62C678.865 1630.5 678.165 1627.11 678.165 1623.71V582.133C678.165 578.731 678.856 575.364 680.216 572.246C680.576 571.422 680.936 570.598 681.298 569.775Z" fill="black"/>
<ellipse cx="1732.27" cy="898.407" rx="331.711" ry="343.294" fill="black"/>
</g>
<defs>
<clipPath id="clip0">
<rect width="2520.51" height="2498.01" fill="white"/>
</clipPath>
</defs>
</svg>
