<svg width="450" height="315" viewBox="0 0 450 315" fill="none" xmlns="http://www.w3.org/2000/svg">
<rect x="132" y="67" width="171" height="171" rx="25" fill="#FBD349"/>
<rect x="153" y="87" width="130" height="130" rx="25" fill="black"/>
<path d="M165.983 153.629C165.983 146.598 166.74 140.25 168.254 134.586C169.816 128.873 171.94 123.795 174.626 119.352C177.312 114.908 180.461 111.075 184.074 107.853C187.688 104.63 191.594 101.969 195.793 99.8691C199.992 97.7695 204.362 96.2314 208.903 95.2549C213.493 94.2295 218.059 93.7168 222.6 93.7168C226.75 93.7168 230.827 94.1074 234.831 94.8887C238.835 95.6211 242.79 96.6709 246.696 98.0381C247.868 98.4775 249.04 98.917 250.212 99.3564C251.433 99.7471 252.507 100.26 253.435 100.895C254.411 101.529 255.192 102.335 255.778 103.312C256.364 104.288 256.657 105.533 256.657 107.047C256.657 108.805 256.364 110.27 255.778 111.441C255.241 112.564 254.533 113.468 253.654 114.151C252.775 114.835 251.799 115.323 250.725 115.616C249.699 115.909 248.698 116.056 247.722 116.056C247.038 116.056 246.306 115.958 245.524 115.763C244.743 115.519 243.938 115.226 243.107 114.884C242.277 114.542 241.472 114.151 240.69 113.712C239.909 113.224 239.201 112.76 238.566 112.32C236.809 111.588 235.148 111.051 233.586 110.709C232.072 110.318 230.607 110.05 229.191 109.903C227.775 109.708 226.384 109.61 225.017 109.61C223.649 109.562 222.282 109.537 220.915 109.537C217.839 109.537 214.763 109.903 211.687 110.636C208.61 111.319 205.632 112.418 202.751 113.932C199.919 115.396 197.258 117.252 194.768 119.498C192.277 121.744 190.104 124.43 188.249 127.555C186.442 130.631 185.002 134.146 183.928 138.102C182.902 142.057 182.39 146.476 182.39 151.358C182.39 159.464 183.537 166.324 185.832 171.939C188.176 177.506 191.203 182.022 194.914 185.489C198.674 188.956 202.897 191.471 207.585 193.033C212.272 194.547 217.009 195.304 221.794 195.304C223.991 195.304 226.14 195.182 228.239 194.938C230.388 194.645 232.365 194.303 234.172 193.912C236.027 193.473 237.663 193.009 239.079 192.521C240.495 191.983 241.569 191.446 242.302 190.909C243.767 189.64 245.061 188.688 246.184 188.053C247.307 187.369 248.601 187.027 250.065 187.027C251.188 187.027 252.238 187.149 253.215 187.394C254.24 187.638 255.119 188.077 255.852 188.712C256.584 189.298 257.17 190.079 257.609 191.056C258.049 192.032 258.269 193.253 258.269 194.718C258.269 196.769 257.561 198.648 256.145 200.357C254.777 202.018 252.556 203.58 249.479 205.045V204.972C248.454 205.558 246.94 206.217 244.938 206.949C242.985 207.682 240.764 208.365 238.273 209C235.832 209.586 233.244 210.074 230.51 210.465C227.775 210.904 225.09 211.124 222.453 211.124C216.447 211.124 210.881 210.416 205.754 209C200.676 207.535 196.037 205.533 191.838 202.994C187.688 200.406 184.001 197.33 180.778 193.766C177.556 190.201 174.846 186.295 172.648 182.047C170.451 177.799 168.791 173.282 167.668 168.497C166.545 163.663 165.983 158.707 165.983 153.629Z" fill="#FBD349"/>
<ellipse cx="203" cy="158.5" rx="8" ry="6.5" fill="#72B747"/>
<ellipse cx="233" cy="131.5" rx="8" ry="6.5" fill="#72B747"/>
<mask id="path-6-inside-1" fill="white">
<path fill-rule="evenodd" clip-rule="evenodd" d="M213.863 174.539C223.289 184.627 239.788 184.53 250.714 174.321C261.64 164.113 262.856 147.659 253.429 137.57L213.863 174.539Z"/>
</mask>
<path fill-rule="evenodd" clip-rule="evenodd" d="M213.863 174.539C223.289 184.627 239.788 184.53 250.714 174.321C261.64 164.113 262.856 147.659 253.429 137.57L213.863 174.539Z" fill="#57D0E7"/>
<path d="M213.863 174.539L213.18 173.808L212.45 174.491L213.132 175.221L213.863 174.539ZM253.429 137.57L254.16 136.887L253.477 136.157L252.747 136.839L253.429 137.57ZM250.031 173.591C239.453 183.475 223.593 183.487 214.594 173.856L213.132 175.221C222.986 185.767 240.123 185.586 251.397 175.052L250.031 173.591ZM252.699 138.253C261.698 147.884 260.61 163.707 250.031 173.591L251.397 175.052C262.67 164.519 264.014 147.433 254.16 136.887L252.699 138.253ZM252.747 136.839L213.18 173.808L214.546 175.269L254.112 138.301L252.747 136.839Z" fill="#57D0E7" mask="url(#path-6-inside-1)"/>
<path d="M197.653 160.301L196.031 163.611L194.029 159.626L197.653 160.301Z" fill="black"/>
<path d="M228.393 133.81L226.851 136.927L224.972 133.186L228.393 133.81Z" fill="black"/>
</svg>
