<svg id="Layer_1" data-name="Layer 1" xmlns="http://www.w3.org/2000/svg" viewBox="0 0 2520.51 2498.01"><defs><style>.cls-1{fill:#fbd349;}.cls-2{fill:#fff;stroke:#000;stroke-miterlimit:10;stroke-width:0.25px;}.cls-3{fill:none;}.cls-4{fill:#72b747;}.cls-5{fill:#57d0e7;}</style></defs><rect class="cls-1" width="2520.51" height="2498.01" rx="497.32"/><rect class="cls-2" x="172.24" y="169.84" width="2172.85" height="2167.07" rx="336.38"/><path class="cls-3" d="M1862.55,1581.77c3.88,4.27,10,1,29,1,7.26,0,4.36.45,20,1,12.32.42,14.82.15,16,2,.75,1.16,2.43,5.41-16,27-18.23,21.35-25.11,23.31-25,30,.23,13.31,27.79,24.28,46,28,8.94,1.82,45.81,9.35,77-15,26.69-20.84,31.74-51.38,33-59,1.67-10.06,1.4-19.21,1-33-.47-16.53-.81-25.6-5-37a67.91,67.91,0,0,0-16-26,68.66,68.66,0,0,0-21-14c-3.39-1.47-10.93-4.4-29-6-15.47-1.37-25.77-2.29-39,0-9.89,1.71-29.35,5.07-47,21-2.06,1.86-20.32,18.75-25,43-1.33,6.88-1.22,12.92-1,25C1860.72,1578.72,1861.31,1580.4,1862.55,1581.77Z" transform="translate(-756.75 -250.99)"/><path class="cls-4" d="M2359.91,1280.18c5.71,4.93,20.28-.12,29-.63,7.25-.43,4.38.21,20-.13,12.32-.27,14.8-.68,16.08,1.1.81,1.11,2.74,5.27-14.45,27.85-17,22.35-23.76,24.69-23.27,31.36,1,13.28,29.11,22.68,47.5,25.37,8.25,1.21,45.28,6.6,76-19.31,25.71-21.65,30.31-51.09,31.71-60,2.31-14.74.81-27.51,0-34-1-8-2.74-21.2-10-36.41-3.81-8-8.12-16.76-17.44-25.06a69.2,69.2,0,0,0-21.75-12.79c-3.48-1.27-11.17-3.78-29.3-4.36-15.53-.5-25.86-.83-38.93,2.19-9.79,2.27-29,6.72-45.75,23.62-1.95,2-19.23,19.86-22.54,44.33-.94,7-.49,13,.41,25C2357.94,1277.64,2358.67,1279.1,2359.91,1280.18Z" transform="translate(-756.75 -250.99)"/><path class="cls-4" d="M1862.3,1586.61c5.71,4.92,20.27-.12,29-.64,7.24-.43,4.37.21,20-.13,12.33-.26,14.8-.67,16.09,1.1.81,1.12,2.73,5.27-14.46,27.86-17,22.35-23.76,24.69-23.27,31.36,1,13.27,29.11,22.68,47.5,25.37,8.26,1.2,45.28,6.59,76-19.31,25.7-21.66,30.31-51.09,31.71-60,2.3-14.74.8-27.51,0-34-1-8-2.75-21.2-10-36.4-3.81-8-8.11-16.76-17.44-25.06a68.69,68.69,0,0,0-21.75-12.8c-3.47-1.27-11.16-3.77-29.29-4.35-15.53-.5-25.87-.83-38.94,2.19-9.78,2.26-29,6.71-45.74,23.61-2,2-19.24,19.87-22.54,44.34-.94,7-.49,13,.4,25C1860.32,1584.06,1861.05,1585.53,1862.3,1586.61Z" transform="translate(-756.75 -250.99)"/><path class="cls-5" d="M2579.55,1410.77c11,28.13,29.5,87.29,18,161-12.59,80.79-54.06,133-72,155-41,50.29-85.19,75.52-97,82-60.3,33.07-114.94,37.36-154,40-35.15,2.37-82.58,5.11-139-14-23-7.81-65.31-22.68-102-62a212,212,0,0,1-22-28" transform="translate(-756.75 -250.99)"/><path class="cls-1" d="M2642.55,924.77c10.37-55.23-11.71-105.61-40-136-16.16-17.37-33.77-26.25-69-44-45.29-22.84-83.41-32.89-111-40-11.06-2.86-47.27-11.9-99-18a932.29,932.29,0,0,0-162-4c-24.68,1.6-164.78,11.79-298,68-323.42,136.46-453,479.46-459,496-22.66,62.34-86,244.09-32,468,46.26,191.92,153.63,310.92,182,341,113.25,120.05,237.83,169.15,295,191,94.79,36.23,179.74,48.38,254,59,48.08,6.87,105.78,14.86,183,13,45.61-1.1,128.55-6.38,223-39,54.87-18.95,75.64-34,91-50,43.74-45.53,47.49-102.65,48-117,1.55-43.65-12.63-93.93-39-116-18.42-15.42-42-24-42-24a158.51,158.51,0,0,0-17-5c-47.15-10.89-96-3-96-3-72.43,11.7-114.05,26.9-159,34-13.25,2.09-95.63,14.19-186-16-83.68-28-134.62-79.13-169-114-106-107.59-134.83-230.17-141-259-30-140.24,7.43-250.86,23-295,19.26-54.59,52-143.71,141-218,25.87-21.59,106-89,218-96,58.93-3.7,120.79,9.63,136,13,52.73,11.66,56.84,20.75,101,28,49.08,8,104,17.07,154-14C2628.76,992.84,2641.49,930.43,2642.55,924.77Z" transform="translate(-756.75 -250.99)"/></svg>